<svg xmlns="http://www.w3.org/2000/svg" width="29.416" height="25.214" viewBox="0 0 29.416 25.214">
  <path id="certificate-fill" d="M51.315,46.416V42.1a2.1,2.1,0,0,0-2.1-2.1H26.1A2.1,2.1,0,0,0,24,42.1V58.91a2.1,2.1,0,0,0,2.1,2.1H40.809v3.152a1.051,1.051,0,0,0,1.521.94l3.732-1.867L49.794,65.1a1.051,1.051,0,0,0,1.521-.94V56.7A7.337,7.337,0,0,0,51.315,46.416ZM37.657,53.657H30.3a1.051,1.051,0,0,1,0-2.1h7.354a1.051,1.051,0,1,1,0,2.1Zm0-4.2H30.3a1.051,1.051,0,0,1,0-2.1h7.354a1.051,1.051,0,1,1,0,2.1ZM49.214,62.464l-2.682-1.342a1.051,1.051,0,0,0-.94,0L42.91,62.464V58.2a7.346,7.346,0,0,0,6.3,0Zm-3.152-5.655a5.253,5.253,0,1,1,5.253-5.253,5.253,5.253,0,0,1-5.253,5.253Z" transform="translate(-24 -40)"/>
</svg>
