<svg xmlns="http://www.w3.org/2000/svg" width="23.149" height="23.799" viewBox="0 0 23.149 23.799">
  <path id="gear" d="M13.848,18.064A4.165,4.165,0,1,1,18.013,13.9a4.165,4.165,0,0,1-4.165,4.165m8.841-3.011a9.245,9.245,0,0,0,.083-1.154,10.175,10.175,0,0,0-.083-1.19L25.2,10.77a.6.6,0,0,0,.143-.762l-2.38-4.117a.585.585,0,0,0-.726-.262l-2.963,1.19a8.625,8.625,0,0,0-2.011-1.166L16.823,2.5a.6.6,0,0,0-.595-.5h-4.76a.6.6,0,0,0-.595.5l-.44,3.153A8.625,8.625,0,0,0,8.422,6.819L5.459,5.629a.585.585,0,0,0-.726.262l-2.38,4.117a.587.587,0,0,0,.143.762l2.511,1.94a10.175,10.175,0,0,0-.083,1.19,9.245,9.245,0,0,0,.083,1.154L2.5,17.029a.587.587,0,0,0-.143.762l2.38,4.117a.6.6,0,0,0,.726.262l2.963-1.2a8.264,8.264,0,0,0,2.011,1.178l.44,3.153a.6.6,0,0,0,.595.5h4.76a.6.6,0,0,0,.595-.5l.44-3.153a8.665,8.665,0,0,0,2.011-1.178l2.963,1.2a.6.6,0,0,0,.726-.262l2.38-4.117a.6.6,0,0,0-.143-.762l-2.511-1.975Z" transform="translate(-2.271 -2)"/>
</svg>
