<svg xmlns="http://www.w3.org/2000/svg" width="17.953" height="20.518" viewBox="0 0 17.953 20.518">
  <path id="Icon_awesome-calendar-alt" data-name="Icon awesome-calendar-alt" d="M0,18.595a1.924,1.924,0,0,0,1.924,1.924H16.03a1.924,1.924,0,0,0,1.924-1.924V7.694H0ZM12.824,10.74a.482.482,0,0,1,.481-.481h1.6a.482.482,0,0,1,.481.481v1.6a.482.482,0,0,1-.481.481H13.3a.482.482,0,0,1-.481-.481Zm0,5.13a.482.482,0,0,1,.481-.481h1.6a.482.482,0,0,1,.481.481v1.6a.482.482,0,0,1-.481.481H13.3a.482.482,0,0,1-.481-.481Zm-5.13-5.13a.482.482,0,0,1,.481-.481h1.6a.482.482,0,0,1,.481.481v1.6a.482.482,0,0,1-.481.481h-1.6a.482.482,0,0,1-.481-.481Zm0,5.13a.482.482,0,0,1,.481-.481h1.6a.482.482,0,0,1,.481.481v1.6a.482.482,0,0,1-.481.481h-1.6a.482.482,0,0,1-.481-.481Zm-5.13-5.13a.482.482,0,0,1,.481-.481h1.6a.482.482,0,0,1,.481.481v1.6a.482.482,0,0,1-.481.481h-1.6a.482.482,0,0,1-.481-.481Zm0,5.13a.482.482,0,0,1,.481-.481h1.6a.482.482,0,0,1,.481.481v1.6a.482.482,0,0,1-.481.481h-1.6a.482.482,0,0,1-.481-.481ZM16.03,2.565H14.106V.641A.643.643,0,0,0,13.465,0H12.183a.643.643,0,0,0-.641.641V2.565H6.412V.641A.643.643,0,0,0,5.771,0H4.488a.643.643,0,0,0-.641.641V2.565H1.924A1.924,1.924,0,0,0,0,4.488V6.412H17.954V4.488A1.924,1.924,0,0,0,16.03,2.565Z" fill="#0033a0"/>
</svg>
