<svg xmlns="http://www.w3.org/2000/svg" width="33.785" height="23.616" viewBox="0 0 33.785 23.616">
  <path id="graduate-cap" d="M39.379,89.61,22.486,95.945l16.893,8.446,8.046-4.023-7.548-2.308a1.157,1.157,0,1,1-.5-2.2l-.191.622,1.341.413v0l1.979.605,11.267,3.467v.879a1.155,1.155,0,0,0,.021,1.925c-.527,1.991-.528,6.509-.528,8.29,1.157.752,1.157.779,2.315,0,0-1.781,0-6.3-.527-8.289a1.157,1.157,0,0,0,.021-1.927v-1.839l-4.292-1.32,5.486-2.743Zm-9.866,11.531-.949,5.7a17.2,17.2,0,0,1,6.241,2.65A25.344,25.344,0,0,1,38,111.827a11.623,11.623,0,0,1,1.38,1.4,11.618,11.618,0,0,1,1.38-1.4,25.339,25.339,0,0,1,3.194-2.341,17.2,17.2,0,0,1,6.241-2.65l-.949-5.7h-.452l-9.413,4.707-9.414-4.707Z" transform="translate(-22.486 -89.61)"/>
</svg>
