<svg xmlns="http://www.w3.org/2000/svg" width="20.086" height="20.086" viewBox="0 0 20.086 20.086">
  <path id="Icon_ionic-ios-close-circle" data-name="Icon ionic-ios-close-circle" d="M13.418,3.375A10.043,10.043,0,1,0,23.461,13.418,10.041,10.041,0,0,0,13.418,3.375Zm2.545,13.679-2.545-2.545-2.545,2.545a.772.772,0,1,1-1.091-1.091l2.545-2.545L9.782,10.873a.772.772,0,0,1,1.091-1.091l2.545,2.545,2.545-2.545a.772.772,0,1,1,1.091,1.091l-2.545,2.545,2.545,2.545a.775.775,0,0,1,0,1.091A.766.766,0,0,1,15.963,17.054Z" transform="translate(-3.375 -3.375)" fill="#0033a0"/>
</svg>
