<svg xmlns="http://www.w3.org/2000/svg" width="31.5" height="31.5" viewBox="0 0 31.5 31.5">
  <path id="Icon_awesome-rss" data-name="Icon awesome-rss" d="M9.006,29.247a4.5,4.5,0,1,1-4.5-4.5,4.5,4.5,0,0,1,4.5,4.5Zm12.351,3.322A21.38,21.38,0,0,0,1.181,12.393,1.124,1.124,0,0,0,0,13.518V16.9a1.126,1.126,0,0,0,1.047,1.126A15.755,15.755,0,0,1,15.726,32.7a1.126,1.126,0,0,0,1.126,1.047h3.38a1.124,1.124,0,0,0,1.125-1.181Zm10.143.02A31.522,31.522,0,0,0,1.16,2.251,1.124,1.124,0,0,0,0,3.376v3.38A1.128,1.128,0,0,0,1.087,7.881,25.879,25.879,0,0,1,25.869,32.664a1.128,1.128,0,0,0,1.125,1.087h3.38A1.124,1.124,0,0,0,31.5,32.59Z" transform="translate(0 -2.25)" fill="#0033a0"/>
</svg>
