<svg xmlns="http://www.w3.org/2000/svg" width="212.131" height="215.876" viewBox="0 0 212.131 215.876">
  <g id="Group_2181" data-name="Group 2181" transform="translate(-18.136 -20.338)">
    <g id="Group_1915" data-name="Group 1915" transform="translate(18.136 20.338)">
      <path id="Path_23852" data-name="Path 23852" d="M122.909,76.662l-.005,0h0Z" transform="translate(19.051 -0.346)" fill="#8dc43f"/>
      <path id="Path_23853" data-name="Path 23853" d="M156,48.154l1.03-2.775-.016,0c.03-.092.083-.175.107-.268,1.9-7.425-11.856-17.356-30.721-22.179-18.832-4.815-35.635-2.721-37.582,4.673h-.008l-.005.034v.005c0,.011,0,.023,0,.034l-.446,2.859L80.378,81.669l-.009-.008.008.02.393,1.005,17.984,45.907.064.079.057.069.024.028,38.258-31.417.844-.694.005,0Z" transform="translate(3.953 -20.338)" fill="#db6626"/>
      <path id="Path_23854" data-name="Path 23854" d="M84.578,136.58l.035-.036L84.6,136.5Z" transform="translate(5.447 20.892)" fill="#8dc43f"/>
      <path id="Path_23855" data-name="Path 23855" d="M56.646,102.617l.047,0-.024-.013Z" transform="translate(-4.468 8.862)" fill="#8dc43f"/>
      <path id="Path_23856" data-name="Path 23856" d="M120.914,121.93V121.9l-.069-.179L102.86,75.817l-.393-1.005-.008-.02L61.848,42.659l-2.3-1.82-.02.033c-.11-.083-.2-.19-.317-.264-6.475-4.1-20.17,5.913-30.587,22.365s-13.613,33.111-7.139,37.212c.024.015.053.02.077.035l0,.005,2.618,1.327,46.16,23.381.024.012,1.112-.066,49.389-2.927.052-.02Z" transform="translate(-18.136 -13.469)" fill="#f48737"/>
      <path id="Path_23857" data-name="Path 23857" d="M203.14,104.548c-1.241-19.433-8.449-34.79-16.1-34.3a5.6,5.6,0,0,0-.94.183l-1.889.3-51.061,8.212h0l-.844.694L94.045,111.058h0l.049.06.095.115,41.574,26.6.882.564.077,0,51.659,2.123,2.912.121,0-.038c.084,0,.167.022.251.016C199.189,140.13,204.383,123.98,203.14,104.548Z" transform="translate(8.807 -2.627)" fill="#2876ae"/>
      <path id="Path_23858" data-name="Path 23858" d="M165.071,176.463c-.019-.046-.053-.084-.073-.13l.008,0-1.337-2.61L140.11,127.758l-.034-.068-.077,0-.882-.564-41.574-26.6-.2-.129-.012.047-12.491,47.93-.244.932.014.049,13.971,49.88.787,2.807.049-.019c.046.152.06.313.118.461,2.829,7.124,19.793,7.073,37.891-.114S167.9,183.586,165.071,176.463Z" transform="translate(5.453 8.08)" fill="#68c8f1"/>
      <path id="Path_23859" data-name="Path 23859" d="M107.1,149.367l.244-.932,12.491-47.93.012-.047.2.129-.095-.115-.049-.06h0l-.024-.028-.057-.069-.064-.079.069.179v.027h0l-.051.02-49.389,2.927-1.112.066-.046,0L26.2,132.094,23.792,133.7l.014.016c-.064.047-.14.076-.2.127-5.9,4.891-.61,21.01,11.818,36,12.377,14.932,27.16,23.1,33.108,18.337h0l0-.005c.023-.016.05-.026.07-.043a5.486,5.486,0,0,0,.393-.421l1.553-1.56,36.524-36.7Z" transform="translate(-17.052 8.021)" fill="#bdce31"/>
    </g>
  </g>
</svg>
